solid OpenSCAD_Model
  facet normal 0.453304 0.891356 -0
    outer loop
      vertex 111.75 57.482 64
      vertex 111.563 57.5771 66
      vertex 111.75 57.482 66
    endloop
  endfacet
  facet normal 0.453304 0.891356 0
    outer loop
      vertex 111.563 57.5771 66
      vertex 111.75 57.482 64
      vertex 111.563 57.5771 64
    endloop
  endfacet
  facet normal -1 0 0
    outer loop
      vertex 2.25 4.25 64
      vertex 2.25 55.75 66
      vertex 2.25 55.75 64
    endloop
  endfacet
  facet normal -1 -0 0
    outer loop
      vertex 2.25 55.75 66
      vertex 2.25 4.25 64
      vertex 2.25 4.25 66
    endloop
  endfacet
  facet normal -0.89098 0.454042 0
    outer loop
      vertex 2.42291 56.5635 64
      vertex 2.51795 56.75 66
      vertex 2.51795 56.75 64
    endloop
  endfacet
  facet normal -0.89098 0.454042 0
    outer loop
      vertex 2.51795 56.75 66
      vertex 2.42291 56.5635 64
      vertex 2.42291 56.5635 66
    endloop
  endfacet
  facet normal -0.838705 0.544585 0
    outer loop
      vertex 2.51795 56.75 64
      vertex 2.63197 56.9256 66
      vertex 2.63197 56.9256 64
    endloop
  endfacet
  facet normal -0.838705 0.544585 0
    outer loop
      vertex 2.63197 56.9256 66
      vertex 2.51795 56.75 64
      vertex 2.51795 56.75 66
    endloop
  endfacet
  facet normal -0.156213 0.987723 0
    outer loop
      vertex 4.04094 57.739 64
      vertex 3.83418 57.7063 66
      vertex 4.04094 57.739 66
    endloop
  endfacet
  facet normal -0.156213 0.987723 0
    outer loop
      vertex 3.83418 57.7063 66
      vertex 4.04094 57.739 64
      vertex 3.83418 57.7063 64
    endloop
  endfacet
  facet normal -0.258899 0.965904 0
    outer loop
      vertex 3.83418 57.7063 64
      vertex 3.63197 57.6521 66
      vertex 3.83418 57.7063 66
    endloop
  endfacet
  facet normal -0.258899 0.965904 0
    outer loop
      vertex 3.63197 57.6521 66
      vertex 3.83418 57.7063 64
      vertex 3.63197 57.6521 64
    endloop
  endfacet
  facet normal -0.156399 -0.987694 0
    outer loop
      vertex 3.83418 2.2937 64
      vertex 4.04094 2.26096 66
      vertex 3.83418 2.2937 66
    endloop
  endfacet
  facet normal -0.156399 -0.987694 -0
    outer loop
      vertex 4.04094 2.26096 66
      vertex 3.83418 2.2937 64
      vertex 4.04094 2.26096 64
    endloop
  endfacet
  facet normal 0.543714 -0.839271 0
    outer loop
      vertex 111.75 2.51795 64
      vertex 111.926 2.63197 66
      vertex 111.75 2.51795 66
    endloop
  endfacet
  facet normal 0.543714 -0.839271 0
    outer loop
      vertex 111.926 2.63197 66
      vertex 111.75 2.51795 64
      vertex 111.926 2.63197 64
    endloop
  endfacet
  facet normal 0.96614 0.25802 0
    outer loop
      vertex 112.706 56.1658 66
      vertex 112.652 56.368 64
      vertex 112.652 56.368 66
    endloop
  endfacet
  facet normal 0.96614 0.25802 0
    outer loop
      vertex 112.652 56.368 64
      vertex 112.706 56.1658 66
      vertex 112.706 56.1658 64
    endloop
  endfacet
  facet normal -0.987694 -0.156399 0
    outer loop
      vertex 2.2937 3.83418 64
      vertex 2.26096 4.04094 66
      vertex 2.26096 4.04094 64
    endloop
  endfacet
  facet normal -0.987694 -0.156399 0
    outer loop
      vertex 2.26096 4.04094 66
      vertex 2.2937 3.83418 64
      vertex 2.2937 3.83418 66
    endloop
  endfacet
  facet normal -0.454211 0.890894 0
    outer loop
      vertex 3.43653 57.5771 64
      vertex 3.25 57.482 66
      vertex 3.43653 57.5771 66
    endloop
  endfacet
  facet normal -0.454211 0.890894 0
    outer loop
      vertex 3.25 57.482 66
      vertex 3.43653 57.5771 64
      vertex 3.25 57.482 64
    endloop
  endfacet
  facet normal 0.776547 -0.630059 0
    outer loop
      vertex 112.236 2.91174 66
      vertex 112.368 3.07443 64
      vertex 112.368 3.07443 66
    endloop
  endfacet
  facet normal 0.776547 -0.630059 0
    outer loop
      vertex 112.368 3.07443 64
      vertex 112.236 2.91174 66
      vertex 112.236 2.91174 64
    endloop
  endfacet
  facet normal 1 -0 0
    outer loop
      vertex 112.75 4.25 66
      vertex 112.75 55.75 64
      vertex 112.75 55.75 66
    endloop
  endfacet
  facet normal 1 0 0
    outer loop
      vertex 112.75 55.75 64
      vertex 112.75 4.25 66
      vertex 112.75 4.25 64
    endloop
  endfacet
  facet normal -0.358358 -0.933584 0
    outer loop
      vertex 3.43653 2.42291 64
      vertex 3.63197 2.34789 66
      vertex 3.43653 2.42291 66
    endloop
  endfacet
  facet normal -0.358358 -0.933584 -0
    outer loop
      vertex 3.63197 2.34789 66
      vertex 3.43653 2.42291 64
      vertex 3.63197 2.34789 64
    endloop
  endfacet
  facet normal -0.453984 -0.89101 0
    outer loop
      vertex 3.25 2.51795 64
      vertex 3.43653 2.42291 66
      vertex 3.25 2.51795 66
    endloop
  endfacet
  facet normal -0.453984 -0.89101 -0
    outer loop
      vertex 3.43653 2.42291 66
      vertex 3.25 2.51795 64
      vertex 3.43653 2.42291 64
    endloop
  endfacet
  facet normal 0 1 -0
    outer loop
      vertex 110.75 57.75 64
      vertex 4.25 57.75 66
      vertex 110.75 57.75 66
    endloop
  endfacet
  facet normal 0 1 0
    outer loop
      vertex 4.25 57.75 66
      vertex 110.75 57.75 64
      vertex 4.25 57.75 64
    endloop
  endfacet
  facet normal -0.965913 0.258867 0
    outer loop
      vertex 2.2937 56.1658 64
      vertex 2.34789 56.368 66
      vertex 2.34789 56.368 64
    endloop
  endfacet
  facet normal -0.965913 0.258867 0
    outer loop
      vertex 2.34789 56.368 66
      vertex 2.2937 56.1658 64
      vertex 2.2937 56.1658 66
    endloop
  endfacet
  facet normal -0.998629 0.0523433 0
    outer loop
      vertex 2.25 55.75 64
      vertex 2.26096 55.9591 66
      vertex 2.26096 55.9591 64
    endloop
  endfacet
  facet normal -0.998629 0.0523433 0
    outer loop
      vertex 2.26096 55.9591 66
      vertex 2.25 55.75 64
      vertex 2.25 55.75 66
    endloop
  endfacet
  facet normal 0.891058 0.45389 0
    outer loop
      vertex 112.577 56.5635 66
      vertex 112.482 56.75 64
      vertex 112.482 56.75 66
    endloop
  endfacet
  facet normal 0.891058 0.45389 0
    outer loop
      vertex 112.482 56.75 64
      vertex 112.577 56.5635 66
      vertex 112.577 56.5635 64
    endloop
  endfacet
  facet normal 0.707178 -0.707035 0
    outer loop
      vertex 112.088 2.76371 64
      vertex 112.236 2.91174 66
      vertex 112.088 2.76371 66
    endloop
  endfacet
  facet normal 0.707178 -0.707035 0
    outer loop
      vertex 112.236 2.91174 66
      vertex 112.088 2.76371 64
      vertex 112.236 2.91174 64
    endloop
  endfacet
  facet normal -0.629194 0.777248 0
    outer loop
      vertex 3.07443 57.368 64
      vertex 2.91174 57.2363 66
      vertex 3.07443 57.368 66
    endloop
  endfacet
  facet normal -0.629194 0.777248 0
    outer loop
      vertex 2.91174 57.2363 66
      vertex 3.07443 57.368 64
      vertex 2.91174 57.2363 64
    endloop
  endfacet
  facet normal 0.630924 -0.775844 0
    outer loop
      vertex 111.926 2.63197 64
      vertex 112.088 2.76371 66
      vertex 111.926 2.63197 66
    endloop
  endfacet
  facet normal 0.630924 -0.775844 0
    outer loop
      vertex 112.088 2.76371 66
      vertex 111.926 2.63197 64
      vertex 112.088 2.76371 64
    endloop
  endfacet
  facet normal -0.987687 0.156443 0
    outer loop
      vertex 2.26096 55.9591 64
      vertex 2.2937 56.1658 66
      vertex 2.2937 56.1658 64
    endloop
  endfacet
  facet normal -0.987687 0.156443 0
    outer loop
      vertex 2.2937 56.1658 66
      vertex 2.26096 55.9591 64
      vertex 2.26096 55.9591 66
    endloop
  endfacet
  facet normal 0.987501 -0.15761 0
    outer loop
      vertex 112.706 3.83418 66
      vertex 112.739 4.04094 64
      vertex 112.739 4.04094 66
    endloop
  endfacet
  facet normal 0.987501 -0.15761 0
    outer loop
      vertex 112.739 4.04094 64
      vertex 112.706 3.83418 66
      vertex 112.706 3.83418 64
    endloop
  endfacet
  facet normal -0.544651 -0.838663 0
    outer loop
      vertex 3.07443 2.63197 64
      vertex 3.25 2.51795 66
      vertex 3.07443 2.63197 66
    endloop
  endfacet
  facet normal -0.544651 -0.838663 -0
    outer loop
      vertex 3.25 2.51795 66
      vertex 3.07443 2.63197 64
      vertex 3.25 2.51795 64
    endloop
  endfacet
  facet normal -0.933621 0.358262 0
    outer loop
      vertex 2.34789 56.368 64
      vertex 2.42291 56.5635 66
      vertex 2.42291 56.5635 64
    endloop
  endfacet
  facet normal -0.933621 0.358262 0
    outer loop
      vertex 2.42291 56.5635 66
      vertex 2.34789 56.368 64
      vertex 2.34789 56.368 66
    endloop
  endfacet
  facet normal 0 -1 0
    outer loop
      vertex 4.25 2.25 64
      vertex 110.75 2.25 66
      vertex 4.25 2.25 66
    endloop
  endfacet
  facet normal 0 -1 -0
    outer loop
      vertex 110.75 2.25 66
      vertex 4.25 2.25 64
      vertex 110.75 2.25 64
    endloop
  endfacet
  facet normal -0.62931 -0.777155 0
    outer loop
      vertex 2.91174 2.76371 64
      vertex 3.07443 2.63197 66
      vertex 2.91174 2.76371 66
    endloop
  endfacet
  facet normal -0.62931 -0.777155 -0
    outer loop
      vertex 3.07443 2.63197 66
      vertex 2.91174 2.76371 64
      vertex 3.07443 2.63197 64
    endloop
  endfacet
  facet normal -0.777155 -0.62931 0
    outer loop
      vertex 2.76371 2.91174 64
      vertex 2.63197 3.07443 66
      vertex 2.63197 3.07443 64
    endloop
  endfacet
  facet normal -0.777155 -0.62931 0
    outer loop
      vertex 2.63197 3.07443 66
      vertex 2.76371 2.91174 64
      vertex 2.76371 2.91174 66
    endloop
  endfacet
  facet normal -0.933584 -0.358358 0
    outer loop
      vertex 2.42291 3.43653 64
      vertex 2.34789 3.63197 66
      vertex 2.34789 3.63197 64
    endloop
  endfacet
  facet normal -0.933584 -0.358358 0
    outer loop
      vertex 2.34789 3.63197 66
      vertex 2.42291 3.43653 64
      vertex 2.42291 3.43653 66
    endloop
  endfacet
  facet normal 0.998619 -0.0525438 0
    outer loop
      vertex 112.739 4.04094 66
      vertex 112.75 4.25 64
      vertex 112.75 4.25 66
    endloop
  endfacet
  facet normal 0.998619 -0.0525438 0
    outer loop
      vertex 112.75 4.25 64
      vertex 112.739 4.04094 66
      vertex 112.739 4.04094 64
    endloop
  endfacet
  facet normal 0.933616 -0.358275 0
    outer loop
      vertex 112.577 3.43653 66
      vertex 112.652 3.63197 64
      vertex 112.652 3.63197 66
    endloop
  endfacet
  facet normal 0.933616 -0.358275 0
    outer loop
      vertex 112.652 3.63197 64
      vertex 112.577 3.43653 66
      vertex 112.577 3.43653 64
    endloop
  endfacet
  facet normal -0.358275 0.933616 0
    outer loop
      vertex 3.63197 57.6521 64
      vertex 3.43653 57.5771 66
      vertex 3.63197 57.6521 66
    endloop
  endfacet
  facet normal -0.358275 0.933616 0
    outer loop
      vertex 3.43653 57.5771 66
      vertex 3.63197 57.6521 64
      vertex 3.43653 57.5771 64
    endloop
  endfacet
  facet normal 0.966143 -0.258008 0
    outer loop
      vertex 112.652 3.63197 66
      vertex 112.706 3.83418 64
      vertex 112.706 3.83418 66
    endloop
  endfacet
  facet normal 0.966143 -0.258008 0
    outer loop
      vertex 112.706 3.83418 64
      vertex 112.652 3.63197 66
      vertex 112.652 3.63197 64
    endloop
  endfacet
  facet normal 0.0523682 -0.998628 0
    outer loop
      vertex 110.75 2.25 64
      vertex 110.959 2.26096 66
      vertex 110.75 2.25 66
    endloop
  endfacet
  facet normal 0.0523682 -0.998628 0
    outer loop
      vertex 110.959 2.26096 66
      vertex 110.75 2.25 64
      vertex 110.959 2.26096 64
    endloop
  endfacet
  facet normal 0.891087 -0.453832 0
    outer loop
      vertex 112.482 3.25 66
      vertex 112.577 3.43653 64
      vertex 112.577 3.43653 66
    endloop
  endfacet
  facet normal 0.891087 -0.453832 0
    outer loop
      vertex 112.577 3.43653 64
      vertex 112.482 3.25 66
      vertex 112.482 3.25 64
    endloop
  endfacet
  facet normal -0.965916 -0.258855 0
    outer loop
      vertex 2.34789 3.63197 64
      vertex 2.2937 3.83418 66
      vertex 2.2937 3.83418 64
    endloop
  endfacet
  facet normal -0.965916 -0.258855 0
    outer loop
      vertex 2.2937 3.83418 66
      vertex 2.34789 3.63197 64
      vertex 2.34789 3.63197 66
    endloop
  endfacet
  facet normal -0.258855 -0.965916 0
    outer loop
      vertex 3.63197 2.34789 64
      vertex 3.83418 2.2937 66
      vertex 3.63197 2.34789 66
    endloop
  endfacet
  facet normal -0.258855 -0.965916 -0
    outer loop
      vertex 3.83418 2.2937 66
      vertex 3.63197 2.34789 64
      vertex 3.83418 2.2937 64
    endloop
  endfacet
  facet normal 0.838749 0.544518 0
    outer loop
      vertex 112.482 56.75 66
      vertex 112.368 56.9256 64
      vertex 112.368 56.9256 66
    endloop
  endfacet
  facet normal 0.838749 0.544518 0
    outer loop
      vertex 112.368 56.9256 64
      vertex 112.482 56.75 66
      vertex 112.482 56.75 64
    endloop
  endfacet
  facet normal 0.776566 0.630035 0
    outer loop
      vertex 112.368 56.9256 66
      vertex 112.236 57.0883 64
      vertex 112.236 57.0883 66
    endloop
  endfacet
  facet normal 0.776566 0.630035 0
    outer loop
      vertex 112.236 57.0883 64
      vertex 112.368 56.9256 66
      vertex 112.368 56.9256 64
    endloop
  endfacet
  facet normal -0.707035 0.707178 0
    outer loop
      vertex 2.76371 57.0883 64
      vertex 2.91174 57.2363 66
      vertex 2.91174 57.2363 64
    endloop
  endfacet
  facet normal -0.707035 0.707178 0
    outer loop
      vertex 2.91174 57.2363 66
      vertex 2.76371 57.0883 64
      vertex 2.76371 57.0883 66
    endloop
  endfacet
  facet normal 0.707107 0.707107 -0
    outer loop
      vertex 112.236 57.0883 64
      vertex 112.088 57.2363 66
      vertex 112.236 57.0883 66
    endloop
  endfacet
  facet normal 0.707107 0.707107 0
    outer loop
      vertex 112.088 57.2363 66
      vertex 112.236 57.0883 64
      vertex 112.088 57.2363 64
    endloop
  endfacet
  facet normal -0.0525438 0.998619 0
    outer loop
      vertex 4.25 57.75 64
      vertex 4.04094 57.739 66
      vertex 4.25 57.75 66
    endloop
  endfacet
  facet normal -0.0525438 0.998619 0
    outer loop
      vertex 4.04094 57.739 66
      vertex 4.25 57.75 64
      vertex 4.04094 57.739 64
    endloop
  endfacet
  facet normal 0.987494 0.157655 0
    outer loop
      vertex 112.739 55.9591 66
      vertex 112.706 56.1658 64
      vertex 112.706 56.1658 66
    endloop
  endfacet
  facet normal 0.987494 0.157655 0
    outer loop
      vertex 112.706 56.1658 64
      vertex 112.739 55.9591 66
      vertex 112.739 55.9591 64
    endloop
  endfacet
  facet normal 0.543647 0.839314 -0
    outer loop
      vertex 111.926 57.368 64
      vertex 111.75 57.482 66
      vertex 111.926 57.368 66
    endloop
  endfacet
  facet normal 0.543647 0.839314 0
    outer loop
      vertex 111.75 57.482 66
      vertex 111.926 57.368 64
      vertex 111.75 57.482 64
    endloop
  endfacet
  facet normal 0.259106 -0.965849 0
    outer loop
      vertex 111.166 2.2937 64
      vertex 111.368 2.34789 66
      vertex 111.166 2.2937 66
    endloop
  endfacet
  facet normal 0.259106 -0.965849 0
    outer loop
      vertex 111.368 2.34789 66
      vertex 111.166 2.2937 64
      vertex 111.368 2.34789 64
    endloop
  endfacet
  facet normal 0 0 -1
    outer loop
      vertex 112.739 4.04094 66
      vertex 115 4 66
      vertex 114.978 3.58189 66
    endloop
  endfacet
  facet normal 0 0 -1
    outer loop
      vertex 115 4 66
      vertex 112.75 4.25 66
      vertex 115 56 66
    endloop
  endfacet
  facet normal 0 0 -1
    outer loop
      vertex 112.706 3.83418 66
      vertex 114.978 3.58189 66
      vertex 114.913 3.16835 66
    endloop
  endfacet
  facet normal 0 0 -1
    outer loop
      vertex 112.75 55.75 66
      vertex 115 56 66
      vertex 112.75 4.25 66
    endloop
  endfacet
  facet normal 0 0 -1
    outer loop
      vertex 112.652 3.63197 66
      vertex 114.913 3.16835 66
      vertex 114.804 2.76393 66
    endloop
  endfacet
  facet normal 0 0 -1
    outer loop
      vertex 112.739 55.9591 66
      vertex 115 56 66
      vertex 112.75 55.75 66
    endloop
  endfacet
  facet normal 0 0 -1
    outer loop
      vertex 112.577 3.43653 66
      vertex 114.804 2.76393 66
      vertex 114.654 2.37305 66
    endloop
  endfacet
  facet normal -0 0 -1
    outer loop
      vertex 115 56 66
      vertex 112.739 55.9591 66
      vertex 114.978 56.4181 66
    endloop
  endfacet
  facet normal 0 0 -1
    outer loop
      vertex 112.482 3.25 66
      vertex 114.654 2.37305 66
      vertex 114.464 2 66
    endloop
  endfacet
  facet normal 0 0 -1
    outer loop
      vertex 112.706 56.1658 66
      vertex 114.978 56.4181 66
      vertex 112.739 55.9591 66
    endloop
  endfacet
  facet normal 0 0 -1
    outer loop
      vertex 112.368 3.07443 66
      vertex 114.464 2 66
      vertex 114.236 1.64886 66
    endloop
  endfacet
  facet normal -0 0 -1
    outer loop
      vertex 114.978 56.4181 66
      vertex 112.706 56.1658 66
      vertex 114.913 56.8316 66
    endloop
  endfacet
  facet normal 0 0 -1
    outer loop
      vertex 112.236 2.91174 66
      vertex 114.236 1.64886 66
      vertex 113.973 1.32348 66
    endloop
  endfacet
  facet normal 0 0 -1
    outer loop
      vertex 112.652 56.368 66
      vertex 114.913 56.8316 66
      vertex 112.706 56.1658 66
    endloop
  endfacet
  facet normal 0 0 -1
    outer loop
      vertex 112.236 2.91174 66
      vertex 113.973 1.32348 66
      vertex 113.677 1.02742 66
    endloop
  endfacet
  facet normal -0 0 -1
    outer loop
      vertex 114.913 56.8316 66
      vertex 112.652 56.368 66
      vertex 114.804 57.2361 66
    endloop
  endfacet
  facet normal 0 0 -1
    outer loop
      vertex 112.088 2.76371 66
      vertex 113.677 1.02742 66
      vertex 113.351 0.763931 66
    endloop
  endfacet
  facet normal 0 0 -1
    outer loop
      vertex 112.577 56.5635 66
      vertex 114.804 57.2361 66
      vertex 112.652 56.368 66
    endloop
  endfacet
  facet normal 0 0 -1
    outer loop
      vertex 111.926 2.63197 66
      vertex 113.351 0.763931 66
      vertex 113 0.535898 66
    endloop
  endfacet
  facet normal -0 0 -1
    outer loop
      vertex 114.804 57.2361 66
      vertex 112.577 56.5635 66
      vertex 114.654 57.6269 66
    endloop
  endfacet
  facet normal 0 0 -1
    outer loop
      vertex 112.482 56.75 66
      vertex 114.654 57.6269 66
      vertex 112.577 56.5635 66
    endloop
  endfacet
  facet normal 0 0 -1
    outer loop
      vertex 115 4 66
      vertex 112.739 4.04094 66
      vertex 112.75 4.25 66
    endloop
  endfacet
  facet normal 0 0 -1
    outer loop
      vertex 114.978 3.58189 66
      vertex 112.706 3.83418 66
      vertex 112.739 4.04094 66
    endloop
  endfacet
  facet normal 0 0 -1
    outer loop
      vertex 114.913 3.16835 66
      vertex 112.652 3.63197 66
      vertex 112.706 3.83418 66
    endloop
  endfacet
  facet normal 0 0 -1
    outer loop
      vertex 111.75 2.51795 66
      vertex 113 0.535898 66
      vertex 112.627 0.345818 66
    endloop
  endfacet
  facet normal 0 0 -1
    outer loop
      vertex 114.804 2.76393 66
      vertex 112.577 3.43653 66
      vertex 112.652 3.63197 66
    endloop
  endfacet
  facet normal 0 0 -1
    outer loop
      vertex 114.654 2.37305 66
      vertex 112.482 3.25 66
      vertex 112.577 3.43653 66
    endloop
  endfacet
  facet normal 0 0 -1
    outer loop
      vertex 114.464 2 66
      vertex 112.368 3.07443 66
      vertex 112.482 3.25 66
    endloop
  endfacet
  facet normal 0 0 -1
    outer loop
      vertex 114.236 1.64886 66
      vertex 112.236 2.91174 66
      vertex 112.368 3.07443 66
    endloop
  endfacet
  facet normal 0 0 -1
    outer loop
      vertex 111.563 2.42291 66
      vertex 112.627 0.345818 66
      vertex 112.236 0.195773 66
    endloop
  endfacet
  facet normal 0 0 -1
    outer loop
      vertex 113.677 1.02742 66
      vertex 112.088 2.76371 66
      vertex 112.236 2.91174 66
    endloop
  endfacet
  facet normal 0 0 -1
    outer loop
      vertex 113.351 0.763931 66
      vertex 111.926 2.63197 66
      vertex 112.088 2.76371 66
    endloop
  endfacet
  facet normal 0 0 -1
    outer loop
      vertex 111.368 2.34789 66
      vertex 112.236 0.195773 66
      vertex 111.832 0.087409 66
    endloop
  endfacet
  facet normal 0 0 -1
    outer loop
      vertex 113 0.535898 66
      vertex 111.75 2.51795 66
      vertex 111.926 2.63197 66
    endloop
  endfacet
  facet normal 0 0 -1
    outer loop
      vertex 112.627 0.345818 66
      vertex 111.563 2.42291 66
      vertex 111.75 2.51795 66
    endloop
  endfacet
  facet normal 0 0 -1
    outer loop
      vertex 111.166 2.2937 66
      vertex 111.832 0.087409 66
      vertex 111.418 0.0219116 66
    endloop
  endfacet
  facet normal 0 0 -1
    outer loop
      vertex 112.236 0.195773 66
      vertex 111.368 2.34789 66
      vertex 111.563 2.42291 66
    endloop
  endfacet
  facet normal 0 0 -1
    outer loop
      vertex 111.832 0.087409 66
      vertex 111.166 2.2937 66
      vertex 111.368 2.34789 66
    endloop
  endfacet
  facet normal 0 0 -1
    outer loop
      vertex 110.959 2.26096 66
      vertex 111.418 0.0219116 66
      vertex 111 0 66
    endloop
  endfacet
  facet normal 0 0 -1
    outer loop
      vertex 111.418 0.0219116 66
      vertex 110.959 2.26096 66
      vertex 111.166 2.2937 66
    endloop
  endfacet
  facet normal 0 0 -1
    outer loop
      vertex 111 0 66
      vertex 110.75 2.25 66
      vertex 110.959 2.26096 66
    endloop
  endfacet
  facet normal 0 0 -1
    outer loop
      vertex 111 0 66
      vertex 4.25 2.25 66
      vertex 110.75 2.25 66
    endloop
  endfacet
  facet normal 0 0 -1
    outer loop
      vertex 4 0 66
      vertex 4.25 2.25 66
      vertex 111 0 66
    endloop
  endfacet
  facet normal 0 0 -1
    outer loop
      vertex 4 0 66
      vertex 4.04094 2.26096 66
      vertex 4.25 2.25 66
    endloop
  endfacet
  facet normal 0 0 -1
    outer loop
      vertex 3.58189 0.0219116 66
      vertex 4.04094 2.26096 66
      vertex 4 0 66
    endloop
  endfacet
  facet normal -0 0 -1
    outer loop
      vertex 4.04094 2.26096 66
      vertex 3.58189 0.0219116 66
      vertex 3.83418 2.2937 66
    endloop
  endfacet
  facet normal 0 0 -1
    outer loop
      vertex 3.16835 0.087409 66
      vertex 3.83418 2.2937 66
      vertex 3.58189 0.0219116 66
    endloop
  endfacet
  facet normal -0 0 -1
    outer loop
      vertex 3.83418 2.2937 66
      vertex 3.16835 0.087409 66
      vertex 3.63197 2.34789 66
    endloop
  endfacet
  facet normal 0 0 -1
    outer loop
      vertex 2.76393 0.195773 66
      vertex 3.63197 2.34789 66
      vertex 3.16835 0.087409 66
    endloop
  endfacet
  facet normal -0 0 -1
    outer loop
      vertex 3.63197 2.34789 66
      vertex 2.76393 0.195773 66
      vertex 3.43653 2.42291 66
    endloop
  endfacet
  facet normal 0 0 -1
    outer loop
      vertex 2.37305 0.345818 66
      vertex 3.43653 2.42291 66
      vertex 2.76393 0.195773 66
    endloop
  endfacet
  facet normal -0 0 -1
    outer loop
      vertex 3.43653 2.42291 66
      vertex 2.37305 0.345818 66
      vertex 3.25 2.51795 66
    endloop
  endfacet
  facet normal 0 0 -1
    outer loop
      vertex 2 0.535898 66
      vertex 3.25 2.51795 66
      vertex 2.37305 0.345818 66
    endloop
  endfacet
  facet normal -0 0 -1
    outer loop
      vertex 3.25 2.51795 66
      vertex 2 0.535898 66
      vertex 3.07443 2.63197 66
    endloop
  endfacet
  facet normal 0 0 -1
    outer loop
      vertex 1.64886 0.763931 66
      vertex 3.07443 2.63197 66
      vertex 2 0.535898 66
    endloop
  endfacet
  facet normal -0 0 -1
    outer loop
      vertex 3.07443 2.63197 66
      vertex 1.64886 0.763931 66
      vertex 2.91174 2.76371 66
    endloop
  endfacet
  facet normal 0 0 -1
    outer loop
      vertex 1.32348 1.02742 66
      vertex 2.91174 2.76371 66
      vertex 1.64886 0.763931 66
    endloop
  endfacet
  facet normal -0 0 -1
    outer loop
      vertex 2.91174 2.76371 66
      vertex 1.32348 1.02742 66
      vertex 2.76371 2.91174 66
    endloop
  endfacet
  facet normal 0 0 -1
    outer loop
      vertex 1.02742 1.32348 66
      vertex 2.76371 2.91174 66
      vertex 1.32348 1.02742 66
    endloop
  endfacet
  facet normal 0 0 -1
    outer loop
      vertex 0.763931 1.64886 66
      vertex 2.76371 2.91174 66
      vertex 1.02742 1.32348 66
    endloop
  endfacet
  facet normal -0 0 -1
    outer loop
      vertex 2.76371 2.91174 66
      vertex 0.763931 1.64886 66
      vertex 2.63197 3.07443 66
    endloop
  endfacet
  facet normal 0 0 -1
    outer loop
      vertex 0.535898 2 66
      vertex 2.63197 3.07443 66
      vertex 0.763931 1.64886 66
    endloop
  endfacet
  facet normal 0 0 -1
    outer loop
      vertex 0.345818 2.37305 66
      vertex 2.51795 3.25 66
      vertex 0.535898 2 66
    endloop
  endfacet
  facet normal -0 0 -1
    outer loop
      vertex 2.63197 3.07443 66
      vertex 0.535898 2 66
      vertex 2.51795 3.25 66
    endloop
  endfacet
  facet normal -0 0 -1
    outer loop
      vertex 114.654 57.6269 66
      vertex 112.482 56.75 66
      vertex 114.464 58 66
    endloop
  endfacet
  facet normal 0 0 -1
    outer loop
      vertex 112.368 56.9256 66
      vertex 114.464 58 66
      vertex 112.482 56.75 66
    endloop
  endfacet
  facet normal -0 0 -1
    outer loop
      vertex 114.464 58 66
      vertex 112.368 56.9256 66
      vertex 114.236 58.3511 66
    endloop
  endfacet
  facet normal 0 0 -1
    outer loop
      vertex 112.236 57.0883 66
      vertex 114.236 58.3511 66
      vertex 112.368 56.9256 66
    endloop
  endfacet
  facet normal -0 0 -1
    outer loop
      vertex 114.236 58.3511 66
      vertex 112.236 57.0883 66
      vertex 113.973 58.6765 66
    endloop
  endfacet
  facet normal -0 0 -1
    outer loop
      vertex 113.973 58.6765 66
      vertex 112.236 57.0883 66
      vertex 113.677 58.9726 66
    endloop
  endfacet
  facet normal 0 0 -1
    outer loop
      vertex 112.088 57.2363 66
      vertex 113.677 58.9726 66
      vertex 112.236 57.0883 66
    endloop
  endfacet
  facet normal -0 0 -1
    outer loop
      vertex 113.677 58.9726 66
      vertex 112.088 57.2363 66
      vertex 113.351 59.2361 66
    endloop
  endfacet
  facet normal 0 0 -1
    outer loop
      vertex 111.926 57.368 66
      vertex 113.351 59.2361 66
      vertex 112.088 57.2363 66
    endloop
  endfacet
  facet normal -0 0 -1
    outer loop
      vertex 113.351 59.2361 66
      vertex 111.926 57.368 66
      vertex 113 59.4641 66
    endloop
  endfacet
  facet normal 0 0 -1
    outer loop
      vertex 111.75 57.482 66
      vertex 113 59.4641 66
      vertex 111.926 57.368 66
    endloop
  endfacet
  facet normal -0 0 -1
    outer loop
      vertex 113 59.4641 66
      vertex 111.75 57.482 66
      vertex 112.627 59.6542 66
    endloop
  endfacet
  facet normal 0 0 -1
    outer loop
      vertex 111.563 57.5771 66
      vertex 112.627 59.6542 66
      vertex 111.75 57.482 66
    endloop
  endfacet
  facet normal -0 0 -1
    outer loop
      vertex 112.627 59.6542 66
      vertex 111.563 57.5771 66
      vertex 112.236 59.8042 66
    endloop
  endfacet
  facet normal 0 0 -1
    outer loop
      vertex 111.368 57.6521 66
      vertex 112.236 59.8042 66
      vertex 111.563 57.5771 66
    endloop
  endfacet
  facet normal -0 0 -1
    outer loop
      vertex 112.236 59.8042 66
      vertex 111.368 57.6521 66
      vertex 111.832 59.9126 66
    endloop
  endfacet
  facet normal 0 0 -1
    outer loop
      vertex 111.166 57.7063 66
      vertex 111.832 59.9126 66
      vertex 111.368 57.6521 66
    endloop
  endfacet
  facet normal -0 0 -1
    outer loop
      vertex 111.832 59.9126 66
      vertex 111.166 57.7063 66
      vertex 111.418 59.9781 66
    endloop
  endfacet
  facet normal 0 0 -1
    outer loop
      vertex 110.959 57.739 66
      vertex 111.418 59.9781 66
      vertex 111.166 57.7063 66
    endloop
  endfacet
  facet normal -0 0 -1
    outer loop
      vertex 111.418 59.9781 66
      vertex 110.959 57.739 66
      vertex 111 60 66
    endloop
  endfacet
  facet normal 0 0 -1
    outer loop
      vertex 110.75 57.75 66
      vertex 111 60 66
      vertex 110.959 57.739 66
    endloop
  endfacet
  facet normal 0 0 -1
    outer loop
      vertex 4.25 57.75 66
      vertex 111 60 66
      vertex 110.75 57.75 66
    endloop
  endfacet
  facet normal 0 0 -1
    outer loop
      vertex 4.25 57.75 66
      vertex 4 60 66
      vertex 111 60 66
    endloop
  endfacet
  facet normal 0 0 -1
    outer loop
      vertex 4.04094 57.739 66
      vertex 4 60 66
      vertex 4.25 57.75 66
    endloop
  endfacet
  facet normal 0 0 -1
    outer loop
      vertex 3.58189 59.9781 66
      vertex 4.04094 57.739 66
      vertex 3.83418 57.7063 66
    endloop
  endfacet
  facet normal 0 0 -1
    outer loop
      vertex 3.16835 59.9126 66
      vertex 3.83418 57.7063 66
      vertex 3.63197 57.6521 66
    endloop
  endfacet
  facet normal 0 0 -1
    outer loop
      vertex 4.04094 57.739 66
      vertex 3.58189 59.9781 66
      vertex 4 60 66
    endloop
  endfacet
  facet normal 0 0 -1
    outer loop
      vertex 2.76393 59.8042 66
      vertex 3.63197 57.6521 66
      vertex 3.43653 57.5771 66
    endloop
  endfacet
  facet normal 0 0 -1
    outer loop
      vertex 2.37305 59.6542 66
      vertex 3.43653 57.5771 66
      vertex 3.25 57.482 66
    endloop
  endfacet
  facet normal 0 0 -1
    outer loop
      vertex 3.83418 57.7063 66
      vertex 3.16835 59.9126 66
      vertex 3.58189 59.9781 66
    endloop
  endfacet
  facet normal 0 0 -1
    outer loop
      vertex 2 59.4641 66
      vertex 3.25 57.482 66
      vertex 3.07443 57.368 66
    endloop
  endfacet
  facet normal 0 0 -1
    outer loop
      vertex 1.64886 59.2361 66
      vertex 3.07443 57.368 66
      vertex 2.91174 57.2363 66
    endloop
  endfacet
  facet normal 0 0 -1
    outer loop
      vertex 3.63197 57.6521 66
      vertex 2.76393 59.8042 66
      vertex 3.16835 59.9126 66
    endloop
  endfacet
  facet normal 0 0 -1
    outer loop
      vertex 1.32348 58.9726 66
      vertex 2.91174 57.2363 66
      vertex 2.76371 57.0883 66
    endloop
  endfacet
  facet normal 0 0 -1
    outer loop
      vertex 0.763931 58.3511 66
      vertex 2.76371 57.0883 66
      vertex 2.63197 56.9256 66
    endloop
  endfacet
  facet normal 0 0 -1
    outer loop
      vertex 0.535898 58 66
      vertex 2.63197 56.9256 66
      vertex 2.51795 56.75 66
    endloop
  endfacet
  facet normal 0 0 -1
    outer loop
      vertex 0.345818 57.6269 66
      vertex 2.51795 56.75 66
      vertex 2.42291 56.5635 66
    endloop
  endfacet
  facet normal 0 0 -1
    outer loop
      vertex 3.43653 57.5771 66
      vertex 2.37305 59.6542 66
      vertex 2.76393 59.8042 66
    endloop
  endfacet
  facet normal 0 0 -1
    outer loop
      vertex 0.195773 57.2361 66
      vertex 2.42291 56.5635 66
      vertex 2.34789 56.368 66
    endloop
  endfacet
  facet normal 0 0 -1
    outer loop
      vertex 0.087409 56.8316 66
      vertex 2.34789 56.368 66
      vertex 2.2937 56.1658 66
    endloop
  endfacet
  facet normal 0 0 -1
    outer loop
      vertex 0.0219116 56.4181 66
      vertex 2.2937 56.1658 66
      vertex 2.26096 55.9591 66
    endloop
  endfacet
  facet normal 0 0 -1
    outer loop
      vertex 0 56 66
      vertex 2.26096 55.9591 66
      vertex 2.25 55.75 66
    endloop
  endfacet
  facet normal 0 0 -1
    outer loop
      vertex 3.25 57.482 66
      vertex 2 59.4641 66
      vertex 2.37305 59.6542 66
    endloop
  endfacet
  facet normal -0 0 -1
    outer loop
      vertex 2.25 4.25 66
      vertex 0 4 66
      vertex 2.25 55.75 66
    endloop
  endfacet
  facet normal -0 0 -1
    outer loop
      vertex 2.51795 3.25 66
      vertex 0.345818 2.37305 66
      vertex 2.42291 3.43653 66
    endloop
  endfacet
  facet normal 0 0 -1
    outer loop
      vertex 0 56 66
      vertex 2.25 55.75 66
      vertex 0 4 66
    endloop
  endfacet
  facet normal 0 0 -1
    outer loop
      vertex 0.195773 2.76393 66
      vertex 2.42291 3.43653 66
      vertex 0.345818 2.37305 66
    endloop
  endfacet
  facet normal 0 0 -1
    outer loop
      vertex 2.26096 55.9591 66
      vertex 0 56 66
      vertex 0.0219116 56.4181 66
    endloop
  endfacet
  facet normal -0 0 -1
    outer loop
      vertex 2.42291 3.43653 66
      vertex 0.195773 2.76393 66
      vertex 2.34789 3.63197 66
    endloop
  endfacet
  facet normal 0 0 -1
    outer loop
      vertex 3.07443 57.368 66
      vertex 1.64886 59.2361 66
      vertex 2 59.4641 66
    endloop
  endfacet
  facet normal 0 0 -1
    outer loop
      vertex 0.087409 3.16835 66
      vertex 2.34789 3.63197 66
      vertex 0.195773 2.76393 66
    endloop
  endfacet
  facet normal 0 0 -1
    outer loop
      vertex 2.91174 57.2363 66
      vertex 1.32348 58.9726 66
      vertex 1.64886 59.2361 66
    endloop
  endfacet
  facet normal -0 0 -1
    outer loop
      vertex 2.34789 3.63197 66
      vertex 0.087409 3.16835 66
      vertex 2.2937 3.83418 66
    endloop
  endfacet
  facet normal 0 0 -1
    outer loop
      vertex 2.76371 57.0883 66
      vertex 1.02742 58.6765 66
      vertex 1.32348 58.9726 66
    endloop
  endfacet
  facet normal 0 0 -1
    outer loop
      vertex 0.0219116 3.58189 66
      vertex 2.2937 3.83418 66
      vertex 0.087409 3.16835 66
    endloop
  endfacet
  facet normal 0 0 -1
    outer loop
      vertex 2.76371 57.0883 66
      vertex 0.763931 58.3511 66
      vertex 1.02742 58.6765 66
    endloop
  endfacet
  facet normal -0 0 -1
    outer loop
      vertex 2.2937 3.83418 66
      vertex 0.0219116 3.58189 66
      vertex 2.26096 4.04094 66
    endloop
  endfacet
  facet normal 0 0 -1
    outer loop
      vertex 2.63197 56.9256 66
      vertex 0.535898 58 66
      vertex 0.763931 58.3511 66
    endloop
  endfacet
  facet normal 0 0 -1
    outer loop
      vertex 0 4 66
      vertex 2.26096 4.04094 66
      vertex 0.0219116 3.58189 66
    endloop
  endfacet
  facet normal 0 0 -1
    outer loop
      vertex 2.51795 56.75 66
      vertex 0.345818 57.6269 66
      vertex 0.535898 58 66
    endloop
  endfacet
  facet normal -0 0 -1
    outer loop
      vertex 2.26096 4.04094 66
      vertex 0 4 66
      vertex 2.25 4.25 66
    endloop
  endfacet
  facet normal 0 0 -1
    outer loop
      vertex 2.42291 56.5635 66
      vertex 0.195773 57.2361 66
      vertex 0.345818 57.6269 66
    endloop
  endfacet
  facet normal 0 0 -1
    outer loop
      vertex 2.34789 56.368 66
      vertex 0.087409 56.8316 66
      vertex 0.195773 57.2361 66
    endloop
  endfacet
  facet normal 0 0 -1
    outer loop
      vertex 2.2937 56.1658 66
      vertex 0.0219116 56.4181 66
      vertex 0.087409 56.8316 66
    endloop
  endfacet
  facet normal 0.156222 -0.987722 0
    outer loop
      vertex 110.959 2.26096 64
      vertex 111.166 2.2937 66
      vertex 110.959 2.26096 66
    endloop
  endfacet
  facet normal 0.156222 -0.987722 0
    outer loop
      vertex 111.166 2.2937 66
      vertex 110.959 2.26096 64
      vertex 111.166 2.2937 64
    endloop
  endfacet
  facet normal 0.933653 0.358179 0
    outer loop
      vertex 112.652 56.368 66
      vertex 112.577 56.5635 64
      vertex 112.577 56.5635 66
    endloop
  endfacet
  facet normal 0.933653 0.358179 0
    outer loop
      vertex 112.577 56.5635 64
      vertex 112.652 56.368 66
      vertex 112.652 56.368 64
    endloop
  endfacet
  facet normal 0.25915 0.965837 -0
    outer loop
      vertex 111.368 57.6521 64
      vertex 111.166 57.7063 66
      vertex 111.368 57.6521 66
    endloop
  endfacet
  facet normal 0.25915 0.965837 0
    outer loop
      vertex 111.166 57.7063 66
      vertex 111.368 57.6521 64
      vertex 111.166 57.7063 64
    endloop
  endfacet
  facet normal -0.777174 0.629286 0
    outer loop
      vertex 2.63197 56.9256 64
      vertex 2.76371 57.0883 66
      vertex 2.76371 57.0883 64
    endloop
  endfacet
  facet normal -0.777174 0.629286 0
    outer loop
      vertex 2.76371 57.0883 66
      vertex 2.63197 56.9256 64
      vertex 2.63197 56.9256 66
    endloop
  endfacet
  facet normal 0.838707 -0.544584 0
    outer loop
      vertex 112.368 3.07443 66
      vertex 112.482 3.25 64
      vertex 112.482 3.25 66
    endloop
  endfacet
  facet normal 0.838707 -0.544584 0
    outer loop
      vertex 112.482 3.25 64
      vertex 112.368 3.07443 66
      vertex 112.368 3.07443 64
    endloop
  endfacet
  facet normal 0.358979 0.933346 -0
    outer loop
      vertex 111.563 57.5771 64
      vertex 111.368 57.6521 66
      vertex 111.563 57.5771 66
    endloop
  endfacet
  facet normal 0.358979 0.933346 0
    outer loop
      vertex 111.368 57.6521 66
      vertex 111.563 57.5771 64
      vertex 111.368 57.6521 64
    endloop
  endfacet
  facet normal 0.998619 0.0525338 0
    outer loop
      vertex 112.75 55.75 66
      vertex 112.739 55.9591 64
      vertex 112.739 55.9591 66
    endloop
  endfacet
  facet normal 0.998619 0.0525338 0
    outer loop
      vertex 112.739 55.9591 64
      vertex 112.75 55.75 66
      vertex 112.75 55.75 64
    endloop
  endfacet
  facet normal -0.544584 0.838707 0
    outer loop
      vertex 3.25 57.482 64
      vertex 3.07443 57.368 66
      vertex 3.25 57.482 66
    endloop
  endfacet
  facet normal -0.544584 0.838707 0
    outer loop
      vertex 3.07443 57.368 66
      vertex 3.25 57.482 64
      vertex 3.07443 57.368 64
    endloop
  endfacet
  facet normal -0.0523532 -0.998629 0
    outer loop
      vertex 4.04094 2.26096 64
      vertex 4.25 2.25 66
      vertex 4.04094 2.26096 66
    endloop
  endfacet
  facet normal -0.0523532 -0.998629 -0
    outer loop
      vertex 4.25 2.25 66
      vertex 4.04094 2.26096 64
      vertex 4.25 2.25 64
    endloop
  endfacet
  facet normal -0.89101 -0.453984 0
    outer loop
      vertex 2.51795 3.25 64
      vertex 2.42291 3.43653 66
      vertex 2.42291 3.43653 64
    endloop
  endfacet
  facet normal -0.89101 -0.453984 0
    outer loop
      vertex 2.42291 3.43653 66
      vertex 2.51795 3.25 64
      vertex 2.51795 3.25 66
    endloop
  endfacet
  facet normal 0.359062 -0.933314 0
    outer loop
      vertex 111.368 2.34789 64
      vertex 111.563 2.42291 66
      vertex 111.368 2.34789 66
    endloop
  endfacet
  facet normal 0.359062 -0.933314 0
    outer loop
      vertex 111.563 2.42291 66
      vertex 111.368 2.34789 64
      vertex 111.563 2.42291 64
    endloop
  endfacet
  facet normal 0.453077 -0.891471 0
    outer loop
      vertex 111.563 2.42291 64
      vertex 111.75 2.51795 66
      vertex 111.563 2.42291 66
    endloop
  endfacet
  facet normal 0.453077 -0.891471 0
    outer loop
      vertex 111.75 2.51795 66
      vertex 111.563 2.42291 64
      vertex 111.75 2.51795 64
    endloop
  endfacet
  facet normal -0.838663 -0.544651 0
    outer loop
      vertex 2.63197 3.07443 64
      vertex 2.51795 3.25 66
      vertex 2.51795 3.25 64
    endloop
  endfacet
  facet normal -0.838663 -0.544651 0
    outer loop
      vertex 2.51795 3.25 66
      vertex 2.63197 3.07443 64
      vertex 2.63197 3.07443 66
    endloop
  endfacet
  facet normal -0.707107 -0.707107 0
    outer loop
      vertex 2.91174 2.76371 64
      vertex 2.76371 2.91174 66
      vertex 2.76371 2.91174 64
    endloop
  endfacet
  facet normal -0.707107 -0.707107 0
    outer loop
      vertex 2.76371 2.91174 66
      vertex 2.91174 2.76371 64
      vertex 2.91174 2.76371 66
    endloop
  endfacet
  facet normal 0.156036 0.987751 -0
    outer loop
      vertex 111.166 57.7063 64
      vertex 110.959 57.739 66
      vertex 111.166 57.7063 66
    endloop
  endfacet
  facet normal 0.156036 0.987751 0
    outer loop
      vertex 110.959 57.739 66
      vertex 111.166 57.7063 64
      vertex 110.959 57.739 64
    endloop
  endfacet
  facet normal -0.998629 -0.0523532 0
    outer loop
      vertex 2.26096 4.04094 64
      vertex 2.25 4.25 66
      vertex 2.25 4.25 64
    endloop
  endfacet
  facet normal -0.998629 -0.0523532 0
    outer loop
      vertex 2.25 4.25 66
      vertex 2.26096 4.04094 64
      vertex 2.26096 4.04094 66
    endloop
  endfacet
  facet normal 0.630809 0.775938 -0
    outer loop
      vertex 112.088 57.2363 64
      vertex 111.926 57.368 66
      vertex 112.088 57.2363 66
    endloop
  endfacet
  facet normal 0.630809 0.775938 0
    outer loop
      vertex 111.926 57.368 66
      vertex 112.088 57.2363 64
      vertex 111.926 57.368 64
    endloop
  endfacet
  facet normal 0.0525588 0.998618 -0
    outer loop
      vertex 110.959 57.739 64
      vertex 110.75 57.75 66
      vertex 110.959 57.739 66
    endloop
  endfacet
  facet normal 0.0525588 0.998618 0
    outer loop
      vertex 110.75 57.75 66
      vertex 110.959 57.739 64
      vertex 110.75 57.75 64
    endloop
  endfacet
  facet normal 0 0 -1
    outer loop
      vertex 110.75 2.25 64
      vertex 112.75 4.25 64
      vertex 112.739 4.04094 64
    endloop
  endfacet
  facet normal -0 0 -1
    outer loop
      vertex 112.75 4.25 64
      vertex 110.75 2.25 64
      vertex 112.75 55.75 64
    endloop
  endfacet
  facet normal 0 0 -1
    outer loop
      vertex 110.75 2.25 64
      vertex 112.739 4.04094 64
      vertex 112.706 3.83418 64
    endloop
  endfacet
  facet normal 0 0 -1
    outer loop
      vertex 110.75 57.75 64
      vertex 112.75 55.75 64
      vertex 110.75 2.25 64
    endloop
  endfacet
  facet normal 0 0 -1
    outer loop
      vertex 110.75 2.25 64
      vertex 112.706 3.83418 64
      vertex 112.652 3.63197 64
    endloop
  endfacet
  facet normal 0 0 -1
    outer loop
      vertex 112.75 55.75 64
      vertex 110.75 57.75 64
      vertex 112.739 55.9591 64
    endloop
  endfacet
  facet normal 0 0 -1
    outer loop
      vertex 110.75 2.25 64
      vertex 112.652 3.63197 64
      vertex 112.577 3.43653 64
    endloop
  endfacet
  facet normal 0 0 -1
    outer loop
      vertex 112.739 55.9591 64
      vertex 110.75 57.75 64
      vertex 112.706 56.1658 64
    endloop
  endfacet
  facet normal 0 0 -1
    outer loop
      vertex 110.75 2.25 64
      vertex 112.577 3.43653 64
      vertex 112.482 3.25 64
    endloop
  endfacet
  facet normal 0 0 -1
    outer loop
      vertex 112.706 56.1658 64
      vertex 110.75 57.75 64
      vertex 112.652 56.368 64
    endloop
  endfacet
  facet normal 0 0 -1
    outer loop
      vertex 110.75 2.25 64
      vertex 112.482 3.25 64
      vertex 112.368 3.07443 64
    endloop
  endfacet
  facet normal 0 0 -1
    outer loop
      vertex 112.652 56.368 64
      vertex 110.75 57.75 64
      vertex 112.577 56.5635 64
    endloop
  endfacet
  facet normal 0 0 -1
    outer loop
      vertex 110.75 2.25 64
      vertex 112.368 3.07443 64
      vertex 112.236 2.91174 64
    endloop
  endfacet
  facet normal 0 0 -1
    outer loop
      vertex 112.577 56.5635 64
      vertex 110.75 57.75 64
      vertex 112.482 56.75 64
    endloop
  endfacet
  facet normal 0 0 -1
    outer loop
      vertex 110.75 2.25 64
      vertex 112.236 2.91174 64
      vertex 112.088 2.76371 64
    endloop
  endfacet
  facet normal 0 0 -1
    outer loop
      vertex 112.482 56.75 64
      vertex 110.75 57.75 64
      vertex 112.368 56.9256 64
    endloop
  endfacet
  facet normal 0 0 -1
    outer loop
      vertex 110.75 2.25 64
      vertex 112.088 2.76371 64
      vertex 111.926 2.63197 64
    endloop
  endfacet
  facet normal 0 0 -1
    outer loop
      vertex 112.368 56.9256 64
      vertex 110.75 57.75 64
      vertex 112.236 57.0883 64
    endloop
  endfacet
  facet normal 0 0 -1
    outer loop
      vertex 110.75 2.25 64
      vertex 111.926 2.63197 64
      vertex 111.75 2.51795 64
    endloop
  endfacet
  facet normal 0 0 -1
    outer loop
      vertex 112.236 57.0883 64
      vertex 110.75 57.75 64
      vertex 112.088 57.2363 64
    endloop
  endfacet
  facet normal 0 0 -1
    outer loop
      vertex 110.75 2.25 64
      vertex 111.75 2.51795 64
      vertex 111.563 2.42291 64
    endloop
  endfacet
  facet normal 0 0 -1
    outer loop
      vertex 112.088 57.2363 64
      vertex 110.75 57.75 64
      vertex 111.926 57.368 64
    endloop
  endfacet
  facet normal 0 0 -1
    outer loop
      vertex 110.75 2.25 64
      vertex 111.563 2.42291 64
      vertex 111.368 2.34789 64
    endloop
  endfacet
  facet normal 0 0 -1
    outer loop
      vertex 111.926 57.368 64
      vertex 110.75 57.75 64
      vertex 111.75 57.482 64
    endloop
  endfacet
  facet normal 0 0 -1
    outer loop
      vertex 110.75 2.25 64
      vertex 111.368 2.34789 64
      vertex 111.166 2.2937 64
    endloop
  endfacet
  facet normal 0 0 -1
    outer loop
      vertex 111.75 57.482 64
      vertex 110.75 57.75 64
      vertex 111.563 57.5771 64
    endloop
  endfacet
  facet normal 0 0 -1
    outer loop
      vertex 110.75 2.25 64
      vertex 111.166 2.2937 64
      vertex 110.959 2.26096 64
    endloop
  endfacet
  facet normal 0 0 -1
    outer loop
      vertex 111.563 57.5771 64
      vertex 110.75 57.75 64
      vertex 111.368 57.6521 64
    endloop
  endfacet
  facet normal 0 0 -1
    outer loop
      vertex 111.368 57.6521 64
      vertex 110.75 57.75 64
      vertex 111.166 57.7063 64
    endloop
  endfacet
  facet normal 0 0 -1
    outer loop
      vertex 111.166 57.7063 64
      vertex 110.75 57.75 64
      vertex 110.959 57.739 64
    endloop
  endfacet
  facet normal 0 0 -1
    outer loop
      vertex 4.25 2.25 64
      vertex 110.75 57.75 64
      vertex 110.75 2.25 64
    endloop
  endfacet
  facet normal 0 0 -1
    outer loop
      vertex 4.25 2.25 64
      vertex 4.25 57.75 64
      vertex 110.75 57.75 64
    endloop
  endfacet
  facet normal 0 0 -1
    outer loop
      vertex 2.25 4.25 64
      vertex 4.25 2.25 64
      vertex 4.04094 2.26096 64
    endloop
  endfacet
  facet normal 0 0 -1
    outer loop
      vertex 4.25 2.25 64
      vertex 2.25 4.25 64
      vertex 4.25 57.75 64
    endloop
  endfacet
  facet normal 0 0 -1
    outer loop
      vertex 2.25 4.25 64
      vertex 4.04094 2.26096 64
      vertex 3.83418 2.2937 64
    endloop
  endfacet
  facet normal 0 0 -1
    outer loop
      vertex 2.25 55.75 64
      vertex 4.25 57.75 64
      vertex 2.25 4.25 64
    endloop
  endfacet
  facet normal 0 0 -1
    outer loop
      vertex 2.25 4.25 64
      vertex 3.83418 2.2937 64
      vertex 3.63197 2.34789 64
    endloop
  endfacet
  facet normal 0 0 -1
    outer loop
      vertex 4.25 57.75 64
      vertex 2.25 55.75 64
      vertex 4.04094 57.739 64
    endloop
  endfacet
  facet normal 0 0 -1
    outer loop
      vertex 2.25 4.25 64
      vertex 3.63197 2.34789 64
      vertex 3.43653 2.42291 64
    endloop
  endfacet
  facet normal 0 0 -1
    outer loop
      vertex 4.04094 57.739 64
      vertex 2.25 55.75 64
      vertex 3.83418 57.7063 64
    endloop
  endfacet
  facet normal 0 0 -1
    outer loop
      vertex 2.25 4.25 64
      vertex 3.43653 2.42291 64
      vertex 3.25 2.51795 64
    endloop
  endfacet
  facet normal 0 0 -1
    outer loop
      vertex 3.83418 57.7063 64
      vertex 2.25 55.75 64
      vertex 3.63197 57.6521 64
    endloop
  endfacet
  facet normal 0 0 -1
    outer loop
      vertex 2.25 4.25 64
      vertex 3.25 2.51795 64
      vertex 3.07443 2.63197 64
    endloop
  endfacet
  facet normal 0 0 -1
    outer loop
      vertex 3.63197 57.6521 64
      vertex 2.25 55.75 64
      vertex 3.43653 57.5771 64
    endloop
  endfacet
  facet normal 0 0 -1
    outer loop
      vertex 2.25 4.25 64
      vertex 3.07443 2.63197 64
      vertex 2.91174 2.76371 64
    endloop
  endfacet
  facet normal 0 0 -1
    outer loop
      vertex 3.43653 57.5771 64
      vertex 2.25 55.75 64
      vertex 3.25 57.482 64
    endloop
  endfacet
  facet normal 0 0 -1
    outer loop
      vertex 2.25 4.25 64
      vertex 2.91174 2.76371 64
      vertex 2.76371 2.91174 64
    endloop
  endfacet
  facet normal 0 0 -1
    outer loop
      vertex 3.25 57.482 64
      vertex 2.25 55.75 64
      vertex 3.07443 57.368 64
    endloop
  endfacet
  facet normal 0 0 -1
    outer loop
      vertex 2.25 4.25 64
      vertex 2.76371 2.91174 64
      vertex 2.63197 3.07443 64
    endloop
  endfacet
  facet normal 0 0 -1
    outer loop
      vertex 3.07443 57.368 64
      vertex 2.25 55.75 64
      vertex 2.91174 57.2363 64
    endloop
  endfacet
  facet normal 0 0 -1
    outer loop
      vertex 2.25 4.25 64
      vertex 2.63197 3.07443 64
      vertex 2.51795 3.25 64
    endloop
  endfacet
  facet normal 0 0 -1
    outer loop
      vertex 2.91174 57.2363 64
      vertex 2.25 55.75 64
      vertex 2.76371 57.0883 64
    endloop
  endfacet
  facet normal 0 0 -1
    outer loop
      vertex 2.25 4.25 64
      vertex 2.51795 3.25 64
      vertex 2.42291 3.43653 64
    endloop
  endfacet
  facet normal 0 0 -1
    outer loop
      vertex 2.76371 57.0883 64
      vertex 2.25 55.75 64
      vertex 2.63197 56.9256 64
    endloop
  endfacet
  facet normal 0 0 -1
    outer loop
      vertex 2.25 4.25 64
      vertex 2.42291 3.43653 64
      vertex 2.34789 3.63197 64
    endloop
  endfacet
  facet normal 0 0 -1
    outer loop
      vertex 2.63197 56.9256 64
      vertex 2.25 55.75 64
      vertex 2.51795 56.75 64
    endloop
  endfacet
  facet normal 0 0 -1
    outer loop
      vertex 2.25 4.25 64
      vertex 2.34789 3.63197 64
      vertex 2.2937 3.83418 64
    endloop
  endfacet
  facet normal 0 0 -1
    outer loop
      vertex 2.51795 56.75 64
      vertex 2.25 55.75 64
      vertex 2.42291 56.5635 64
    endloop
  endfacet
  facet normal 0 0 -1
    outer loop
      vertex 2.25 4.25 64
      vertex 2.2937 3.83418 64
      vertex 2.26096 4.04094 64
    endloop
  endfacet
  facet normal 0 0 -1
    outer loop
      vertex 2.42291 56.5635 64
      vertex 2.25 55.75 64
      vertex 2.34789 56.368 64
    endloop
  endfacet
  facet normal 0 0 -1
    outer loop
      vertex 2.34789 56.368 64
      vertex 2.25 55.75 64
      vertex 2.2937 56.1658 64
    endloop
  endfacet
  facet normal 0 0 -1
    outer loop
      vertex 2.2937 56.1658 64
      vertex 2.25 55.75 64
      vertex 2.26096 55.9591 64
    endloop
  endfacet
  facet normal 0.628615 0.777717 -0
    outer loop
      vertex 113.677 58.9726 66
      vertex 113.351 59.2361 68
      vertex 113.677 58.9726 68
    endloop
  endfacet
  facet normal 0.628615 0.777717 0
    outer loop
      vertex 113.351 59.2361 68
      vertex 113.677 58.9726 66
      vertex 113.351 59.2361 66
    endloop
  endfacet
  facet normal -0.987689 -0.156432 0
    outer loop
      vertex 0.087409 3.16835 66
      vertex 0.0219116 3.58189 68
      vertex 0.0219116 3.58189 66
    endloop
  endfacet
  facet normal -0.987689 -0.156432 0
    outer loop
      vertex 0.0219116 3.58189 68
      vertex 0.087409 3.16835 66
      vertex 0.087409 3.16835 68
    endloop
  endfacet
  facet normal -0.99863 -0.0523345 0
    outer loop
      vertex 0.0219116 3.58189 66
      vertex 0 4 68
      vertex 0 4 66
    endloop
  endfacet
  facet normal -0.99863 -0.0523345 0
    outer loop
      vertex 0 4 68
      vertex 0.0219116 3.58189 66
      vertex 0.0219116 3.58189 68
    endloop
  endfacet
  facet normal -0.358368 -0.93358 0
    outer loop
      vertex 2.37305 0.345818 66
      vertex 2.76393 0.195773 68
      vertex 2.37305 0.345818 68
    endloop
  endfacet
  facet normal -0.358368 -0.93358 -0
    outer loop
      vertex 2.76393 0.195773 68
      vertex 2.37305 0.345818 66
      vertex 2.76393 0.195773 66
    endloop
  endfacet
  facet normal 0.0523482 -0.998629 0
    outer loop
      vertex 111 0 66
      vertex 111.418 0.0219116 68
      vertex 111 0 68
    endloop
  endfacet
  facet normal 0.0523482 -0.998629 0
    outer loop
      vertex 111.418 0.0219116 68
      vertex 111 0 66
      vertex 111.418 0.0219116 66
    endloop
  endfacet
  facet normal 0 -1 0
    outer loop
      vertex 4 0 66
      vertex 111 0 68
      vertex 4 0 68
    endloop
  endfacet
  facet normal 0 -1 -0
    outer loop
      vertex 111 0 68
      vertex 4 0 66
      vertex 111 0 66
    endloop
  endfacet
  facet normal 0.838707 -0.544584 0
    outer loop
      vertex 114.236 1.64886 68
      vertex 114.464 2 66
      vertex 114.464 2 68
    endloop
  endfacet
  facet normal 0.838707 -0.544584 0
    outer loop
      vertex 114.464 2 66
      vertex 114.236 1.64886 68
      vertex 114.236 1.64886 66
    endloop
  endfacet
  facet normal -0.156438 0.987688 0
    outer loop
      vertex 3.58189 59.9781 66
      vertex 3.16835 59.9126 68
      vertex 3.58189 59.9781 68
    endloop
  endfacet
  facet normal -0.156438 0.987688 0
    outer loop
      vertex 3.16835 59.9126 68
      vertex 3.58189 59.9781 66
      vertex 3.16835 59.9126 66
    endloop
  endfacet
  facet normal -0.933556 0.358432 0
    outer loop
      vertex 0.195773 57.2361 66
      vertex 0.345818 57.6269 68
      vertex 0.345818 57.6269 66
    endloop
  endfacet
  facet normal -0.933556 0.358432 0
    outer loop
      vertex 0.345818 57.6269 68
      vertex 0.195773 57.2361 66
      vertex 0.195773 57.2361 68
    endloop
  endfacet
  facet normal 0.544736 0.838607 -0
    outer loop
      vertex 113.351 59.2361 66
      vertex 113 59.4641 68
      vertex 113.351 59.2361 68
    endloop
  endfacet
  facet normal 0.544736 0.838607 0
    outer loop
      vertex 113 59.4641 68
      vertex 113.351 59.2361 66
      vertex 113 59.4641 66
    endloop
  endfacet
  facet normal 0 1 -0
    outer loop
      vertex 111 60 66
      vertex 4 60 68
      vertex 111 60 68
    endloop
  endfacet
  facet normal 0 1 0
    outer loop
      vertex 4 60 68
      vertex 111 60 66
      vertex 4 60 66
    endloop
  endfacet
  facet normal -1 0 0
    outer loop
      vertex 0 4 66
      vertex 0 56 68
      vertex 0 56 66
    endloop
  endfacet
  facet normal -1 -0 0
    outer loop
      vertex 0 56 68
      vertex 0 4 66
      vertex 0 4 68
    endloop
  endfacet
  facet normal 0.156269 0.987715 -0
    outer loop
      vertex 111.832 59.9126 66
      vertex 111.418 59.9781 68
      vertex 111.832 59.9126 68
    endloop
  endfacet
  facet normal 0.156269 0.987715 0
    outer loop
      vertex 111.418 59.9781 68
      vertex 111.832 59.9126 66
      vertex 111.418 59.9781 66
    endloop
  endfacet
  facet normal -0.838671 -0.544639 0
    outer loop
      vertex 0.763931 1.64886 66
      vertex 0.535898 2 68
      vertex 0.535898 2 66
    endloop
  endfacet
  facet normal -0.838671 -0.544639 0
    outer loop
      vertex 0.535898 2 68
      vertex 0.763931 1.64886 66
      vertex 0.763931 1.64886 68
    endloop
  endfacet
  facet normal 0.838678 0.544627 0
    outer loop
      vertex 114.464 58 68
      vertex 114.236 58.3511 66
      vertex 114.236 58.3511 68
    endloop
  endfacet
  facet normal 0.838678 0.544627 0
    outer loop
      vertex 114.236 58.3511 66
      vertex 114.464 58 68
      vertex 114.464 58 66
    endloop
  endfacet
  facet normal -0.891005 -0.453993 0
    outer loop
      vertex 0.535898 2 66
      vertex 0.345818 2.37305 68
      vertex 0.345818 2.37305 66
    endloop
  endfacet
  facet normal -0.891005 -0.453993 0
    outer loop
      vertex 0.345818 2.37305 68
      vertex 0.535898 2 66
      vertex 0.535898 2 68
    endloop
  endfacet
  facet normal -0.156432 -0.987689 0
    outer loop
      vertex 3.16835 0.087409 66
      vertex 3.58189 0.0219116 68
      vertex 3.16835 0.087409 68
    endloop
  endfacet
  facet normal -0.156432 -0.987689 -0
    outer loop
      vertex 3.58189 0.0219116 68
      vertex 3.16835 0.087409 66
      vertex 3.58189 0.0219116 66
    endloop
  endfacet
  facet normal -0.0523345 -0.99863 0
    outer loop
      vertex 3.58189 0.0219116 66
      vertex 4 0 68
      vertex 3.58189 0.0219116 68
    endloop
  endfacet
  facet normal -0.0523345 -0.99863 -0
    outer loop
      vertex 4 0 68
      vertex 3.58189 0.0219116 66
      vertex 4 0 66
    endloop
  endfacet
  facet normal 0.544792 -0.838571 0
    outer loop
      vertex 113 0.535898 66
      vertex 113.351 0.763931 68
      vertex 113 0.535898 68
    endloop
  endfacet
  facet normal 0.544792 -0.838571 0
    outer loop
      vertex 113.351 0.763931 68
      vertex 113 0.535898 66
      vertex 113.351 0.763931 66
    endloop
  endfacet
  facet normal -0.629323 -0.777144 0
    outer loop
      vertex 1.32348 1.02742 66
      vertex 1.64886 0.763931 68
      vertex 1.32348 1.02742 68
    endloop
  endfacet
  facet normal -0.629323 -0.777144 -0
    outer loop
      vertex 1.64886 0.763931 68
      vertex 1.32348 1.02742 66
      vertex 1.64886 0.763931 66
    endloop
  endfacet
  facet normal -0.707155 0.707059 0
    outer loop
      vertex 1.02742 58.6765 66
      vertex 1.32348 58.9726 68
      vertex 1.32348 58.9726 66
    endloop
  endfacet
  facet normal -0.707155 0.707059 0
    outer loop
      vertex 1.32348 58.9726 68
      vertex 1.02742 58.6765 66
      vertex 1.02742 58.6765 68
    endloop
  endfacet
  facet normal -0.358275 0.933616 0
    outer loop
      vertex 2.76393 59.8042 66
      vertex 2.37305 59.6542 68
      vertex 2.76393 59.8042 68
    endloop
  endfacet
  facet normal -0.358275 0.933616 0
    outer loop
      vertex 2.37305 59.6542 68
      vertex 2.76393 59.8042 66
      vertex 2.37305 59.6542 66
    endloop
  endfacet
  facet normal -0.777144 -0.629323 0
    outer loop
      vertex 1.02742 1.32348 66
      vertex 0.763931 1.64886 68
      vertex 0.763931 1.64886 66
    endloop
  endfacet
  facet normal -0.777144 -0.629323 0
    outer loop
      vertex 0.763931 1.64886 68
      vertex 1.02742 1.32348 66
      vertex 1.02742 1.32348 68
    endloop
  endfacet
  facet normal 1 -0 0
    outer loop
      vertex 115 4 68
      vertex 115 56 66
      vertex 115 56 68
    endloop
  endfacet
  facet normal 1 0 0
    outer loop
      vertex 115 56 66
      vertex 115 4 68
      vertex 115 4 66
    endloop
  endfacet
  facet normal -0.89103 0.453945 0
    outer loop
      vertex 0.345818 57.6269 66
      vertex 0.535898 58 68
      vertex 0.535898 58 66
    endloop
  endfacet
  facet normal -0.89103 0.453945 0
    outer loop
      vertex 0.535898 58 68
      vertex 0.345818 57.6269 66
      vertex 0.345818 57.6269 68
    endloop
  endfacet
  facet normal -0.99863 0.0523357 0
    outer loop
      vertex 0 56 66
      vertex 0.0219116 56.4181 68
      vertex 0.0219116 56.4181 66
    endloop
  endfacet
  facet normal -0.99863 0.0523357 0
    outer loop
      vertex 0.0219116 56.4181 68
      vertex 0 56 66
      vertex 0 56 68
    endloop
  endfacet
  facet normal 0.998619 -0.052545 0
    outer loop
      vertex 114.978 3.58189 68
      vertex 115 4 66
      vertex 115 4 68
    endloop
  endfacet
  facet normal 0.998619 -0.052545 0
    outer loop
      vertex 115 4 66
      vertex 114.978 3.58189 68
      vertex 114.978 3.58189 66
    endloop
  endfacet
  facet normal 0.987869 0.155288 0
    outer loop
      vertex 114.978 56.4181 68
      vertex 114.913 56.8316 66
      vertex 114.913 56.8316 68
    endloop
  endfacet
  facet normal 0.987869 0.155288 0
    outer loop
      vertex 114.913 56.8316 66
      vertex 114.978 56.4181 68
      vertex 114.978 56.4181 66
    endloop
  endfacet
  facet normal 0.891082 -0.453842 0
    outer loop
      vertex 114.464 2 68
      vertex 114.654 2.37305 66
      vertex 114.654 2.37305 68
    endloop
  endfacet
  facet normal 0.891082 -0.453842 0
    outer loop
      vertex 114.654 2.37305 66
      vertex 114.464 2 68
      vertex 114.464 2 66
    endloop
  endfacet
  facet normal -0.258899 0.965904 0
    outer loop
      vertex 3.16835 59.9126 66
      vertex 2.76393 59.8042 68
      vertex 3.16835 59.9126 68
    endloop
  endfacet
  facet normal -0.258899 0.965904 0
    outer loop
      vertex 2.76393 59.8042 68
      vertex 3.16835 59.9126 66
      vertex 2.76393 59.8042 66
    endloop
  endfacet
  facet normal 0.358273 -0.933617 0
    outer loop
      vertex 112.236 0.195773 66
      vertex 112.627 0.345818 68
      vertex 112.236 0.195773 68
    endloop
  endfacet
  facet normal 0.358273 -0.933617 0
    outer loop
      vertex 112.627 0.345818 68
      vertex 112.236 0.195773 66
      vertex 112.627 0.345818 66
    endloop
  endfacet
  facet normal 0.454042 -0.89098 0
    outer loop
      vertex 112.627 0.345818 66
      vertex 113 0.535898 68
      vertex 112.627 0.345818 68
    endloop
  endfacet
  facet normal 0.454042 -0.89098 0
    outer loop
      vertex 113 0.535898 68
      vertex 112.627 0.345818 66
      vertex 113 0.535898 66
    endloop
  endfacet
  facet normal -0.454031 0.890986 0
    outer loop
      vertex 2.37305 59.6542 66
      vertex 2 59.4641 68
      vertex 2.37305 59.6542 68
    endloop
  endfacet
  facet normal -0.454031 0.890986 0
    outer loop
      vertex 2 59.4641 68
      vertex 2.37305 59.6542 66
      vertex 2 59.4641 66
    endloop
  endfacet
  facet normal -0.838642 0.544683 0
    outer loop
      vertex 0.535898 58 66
      vertex 0.763931 58.3511 68
      vertex 0.763931 58.3511 66
    endloop
  endfacet
  facet normal -0.838642 0.544683 0
    outer loop
      vertex 0.763931 58.3511 68
      vertex 0.535898 58 66
      vertex 0.535898 58 68
    endloop
  endfacet
  facet normal -0.544639 -0.838671 0
    outer loop
      vertex 1.64886 0.763931 66
      vertex 2 0.535898 68
      vertex 1.64886 0.763931 68
    endloop
  endfacet
  facet normal -0.544639 -0.838671 -0
    outer loop
      vertex 2 0.535898 68
      vertex 1.64886 0.763931 66
      vertex 2 0.535898 66
    endloop
  endfacet
  facet normal -0.0523069 0.998631 0
    outer loop
      vertex 4 60 66
      vertex 3.58189 59.9781 68
      vertex 4 60 68
    endloop
  endfacet
  facet normal -0.0523069 0.998631 0
    outer loop
      vertex 3.58189 59.9781 68
      vertex 4 60 66
      vertex 3.58189 59.9781 66
    endloop
  endfacet
  facet normal -0.707107 -0.707107 0
    outer loop
      vertex 1.32348 1.02742 66
      vertex 1.02742 1.32348 68
      vertex 1.02742 1.32348 66
    endloop
  endfacet
  facet normal -0.707107 -0.707107 0
    outer loop
      vertex 1.02742 1.32348 68
      vertex 1.32348 1.02742 66
      vertex 1.32348 1.02742 68
    endloop
  endfacet
  facet normal 0.707226 0.706987 0
    outer loop
      vertex 113.973 58.6765 68
      vertex 113.677 58.9726 66
      vertex 113.677 58.9726 68
    endloop
  endfacet
  facet normal 0.707226 0.706987 0
    outer loop
      vertex 113.677 58.9726 66
      vertex 113.973 58.6765 68
      vertex 113.973 58.6765 66
    endloop
  endfacet
  facet normal 0.965545 -0.260235 0
    outer loop
      vertex 114.804 2.76393 68
      vertex 114.913 3.16835 66
      vertex 114.913 3.16835 68
    endloop
  endfacet
  facet normal 0.965545 -0.260235 0
    outer loop
      vertex 114.913 3.16835 66
      vertex 114.804 2.76393 68
      vertex 114.804 2.76393 66
    endloop
  endfacet
  facet normal -0.987686 0.156447 0
    outer loop
      vertex 0.0219116 56.4181 66
      vertex 0.087409 56.8316 68
      vertex 0.087409 56.8316 66
    endloop
  endfacet
  facet normal -0.987686 0.156447 0
    outer loop
      vertex 0.087409 56.8316 68
      vertex 0.0219116 56.4181 66
      vertex 0.0219116 56.4181 68
    endloop
  endfacet
  facet normal 0 0 1
    outer loop
      vertex 111 60 68
      vertex 115 56 68
      vertex 114.978 56.4181 68
    endloop
  endfacet
  facet normal 0 0 1
    outer loop
      vertex 115 56 68
      vertex 111 60 68
      vertex 115 4 68
    endloop
  endfacet
  facet normal 0 0 1
    outer loop
      vertex 111 60 68
      vertex 114.978 56.4181 68
      vertex 114.913 56.8316 68
    endloop
  endfacet
  facet normal 0 0 1
    outer loop
      vertex 111 0 68
      vertex 115 4 68
      vertex 111 60 68
    endloop
  endfacet
  facet normal 0 0 1
    outer loop
      vertex 111 60 68
      vertex 114.913 56.8316 68
      vertex 114.804 57.2361 68
    endloop
  endfacet
  facet normal 0 0 1
    outer loop
      vertex 115 4 68
      vertex 111 0 68
      vertex 114.978 3.58189 68
    endloop
  endfacet
  facet normal 0 0 1
    outer loop
      vertex 111 60 68
      vertex 114.804 57.2361 68
      vertex 114.654 57.6269 68
    endloop
  endfacet
  facet normal 0 0 1
    outer loop
      vertex 114.978 3.58189 68
      vertex 111 0 68
      vertex 114.913 3.16835 68
    endloop
  endfacet
  facet normal 0 0 1
    outer loop
      vertex 111 60 68
      vertex 114.654 57.6269 68
      vertex 114.464 58 68
    endloop
  endfacet
  facet normal 0 0 1
    outer loop
      vertex 114.913 3.16835 68
      vertex 111 0 68
      vertex 114.804 2.76393 68
    endloop
  endfacet
  facet normal 0 0 1
    outer loop
      vertex 111 60 68
      vertex 114.464 58 68
      vertex 114.236 58.3511 68
    endloop
  endfacet
  facet normal 0 0 1
    outer loop
      vertex 114.804 2.76393 68
      vertex 111 0 68
      vertex 114.654 2.37305 68
    endloop
  endfacet
  facet normal 0 0 1
    outer loop
      vertex 111 60 68
      vertex 114.236 58.3511 68
      vertex 113.973 58.6765 68
    endloop
  endfacet
  facet normal 0 0 1
    outer loop
      vertex 114.654 2.37305 68
      vertex 111 0 68
      vertex 114.464 2 68
    endloop
  endfacet
  facet normal 0 0 1
    outer loop
      vertex 111 60 68
      vertex 113.973 58.6765 68
      vertex 113.677 58.9726 68
    endloop
  endfacet
  facet normal 0 0 1
    outer loop
      vertex 114.464 2 68
      vertex 111 0 68
      vertex 114.236 1.64886 68
    endloop
  endfacet
  facet normal 0 0 1
    outer loop
      vertex 111 60 68
      vertex 113.677 58.9726 68
      vertex 113.351 59.2361 68
    endloop
  endfacet
  facet normal 0 0 1
    outer loop
      vertex 114.236 1.64886 68
      vertex 111 0 68
      vertex 113.973 1.32348 68
    endloop
  endfacet
  facet normal 0 0 1
    outer loop
      vertex 111 60 68
      vertex 113.351 59.2361 68
      vertex 113 59.4641 68
    endloop
  endfacet
  facet normal 0 0 1
    outer loop
      vertex 113.973 1.32348 68
      vertex 111 0 68
      vertex 113.677 1.02742 68
    endloop
  endfacet
  facet normal 0 0 1
    outer loop
      vertex 111 60 68
      vertex 113 59.4641 68
      vertex 112.627 59.6542 68
    endloop
  endfacet
  facet normal 0 0 1
    outer loop
      vertex 113.677 1.02742 68
      vertex 111 0 68
      vertex 113.351 0.763931 68
    endloop
  endfacet
  facet normal 0 0 1
    outer loop
      vertex 111 60 68
      vertex 112.627 59.6542 68
      vertex 112.236 59.8042 68
    endloop
  endfacet
  facet normal 0 0 1
    outer loop
      vertex 113.351 0.763931 68
      vertex 111 0 68
      vertex 113 0.535898 68
    endloop
  endfacet
  facet normal 0 0 1
    outer loop
      vertex 111 60 68
      vertex 112.236 59.8042 68
      vertex 111.832 59.9126 68
    endloop
  endfacet
  facet normal 0 0 1
    outer loop
      vertex 113 0.535898 68
      vertex 111 0 68
      vertex 112.627 0.345818 68
    endloop
  endfacet
  facet normal 0 0 1
    outer loop
      vertex 111 60 68
      vertex 111.832 59.9126 68
      vertex 111.418 59.9781 68
    endloop
  endfacet
  facet normal 0 0 1
    outer loop
      vertex 112.627 0.345818 68
      vertex 111 0 68
      vertex 112.236 0.195773 68
    endloop
  endfacet
  facet normal 0 0 1
    outer loop
      vertex 112.236 0.195773 68
      vertex 111 0 68
      vertex 111.832 0.087409 68
    endloop
  endfacet
  facet normal 0 0 1
    outer loop
      vertex 111.832 0.087409 68
      vertex 111 0 68
      vertex 111.418 0.0219116 68
    endloop
  endfacet
  facet normal -0 0 1
    outer loop
      vertex 4 60 68
      vertex 111 0 68
      vertex 111 60 68
    endloop
  endfacet
  facet normal 0 0 1
    outer loop
      vertex 4 60 68
      vertex 4 0 68
      vertex 111 0 68
    endloop
  endfacet
  facet normal 0 0 1
    outer loop
      vertex 0 56 68
      vertex 4 60 68
      vertex 3.58189 59.9781 68
    endloop
  endfacet
  facet normal 0 0 1
    outer loop
      vertex 4 60 68
      vertex 0 56 68
      vertex 4 0 68
    endloop
  endfacet
  facet normal 0 0 1
    outer loop
      vertex 0 56 68
      vertex 3.58189 59.9781 68
      vertex 3.16835 59.9126 68
    endloop
  endfacet
  facet normal -0 0 1
    outer loop
      vertex 0 4 68
      vertex 4 0 68
      vertex 0 56 68
    endloop
  endfacet
  facet normal 0 0 1
    outer loop
      vertex 0 56 68
      vertex 3.16835 59.9126 68
      vertex 2.76393 59.8042 68
    endloop
  endfacet
  facet normal 0 0 1
    outer loop
      vertex 4 0 68
      vertex 0 4 68
      vertex 3.58189 0.0219116 68
    endloop
  endfacet
  facet normal 0 0 1
    outer loop
      vertex 0 56 68
      vertex 2.76393 59.8042 68
      vertex 2.37305 59.6542 68
    endloop
  endfacet
  facet normal 0 0 1
    outer loop
      vertex 3.58189 0.0219116 68
      vertex 0 4 68
      vertex 3.16835 0.087409 68
    endloop
  endfacet
  facet normal 0 0 1
    outer loop
      vertex 0 56 68
      vertex 2.37305 59.6542 68
      vertex 2 59.4641 68
    endloop
  endfacet
  facet normal 0 0 1
    outer loop
      vertex 3.16835 0.087409 68
      vertex 0 4 68
      vertex 2.76393 0.195773 68
    endloop
  endfacet
  facet normal 0 0 1
    outer loop
      vertex 0 56 68
      vertex 2 59.4641 68
      vertex 1.64886 59.2361 68
    endloop
  endfacet
  facet normal 0 0 1
    outer loop
      vertex 2.76393 0.195773 68
      vertex 0 4 68
      vertex 2.37305 0.345818 68
    endloop
  endfacet
  facet normal 0 0 1
    outer loop
      vertex 0 56 68
      vertex 1.64886 59.2361 68
      vertex 1.32348 58.9726 68
    endloop
  endfacet
  facet normal 0 0 1
    outer loop
      vertex 2.37305 0.345818 68
      vertex 0 4 68
      vertex 2 0.535898 68
    endloop
  endfacet
  facet normal 0 0 1
    outer loop
      vertex 0 56 68
      vertex 1.32348 58.9726 68
      vertex 1.02742 58.6765 68
    endloop
  endfacet
  facet normal 0 0 1
    outer loop
      vertex 2 0.535898 68
      vertex 0 4 68
      vertex 1.64886 0.763931 68
    endloop
  endfacet
  facet normal 0 0 1
    outer loop
      vertex 0 56 68
      vertex 1.02742 58.6765 68
      vertex 0.763931 58.3511 68
    endloop
  endfacet
  facet normal 0 0 1
    outer loop
      vertex 1.64886 0.763931 68
      vertex 0 4 68
      vertex 1.32348 1.02742 68
    endloop
  endfacet
  facet normal 0 0 1
    outer loop
      vertex 0 56 68
      vertex 0.763931 58.3511 68
      vertex 0.535898 58 68
    endloop
  endfacet
  facet normal 0 0 1
    outer loop
      vertex 1.32348 1.02742 68
      vertex 0 4 68
      vertex 1.02742 1.32348 68
    endloop
  endfacet
  facet normal 0 0 1
    outer loop
      vertex 0 56 68
      vertex 0.535898 58 68
      vertex 0.345818 57.6269 68
    endloop
  endfacet
  facet normal 0 0 1
    outer loop
      vertex 1.02742 1.32348 68
      vertex 0 4 68
      vertex 0.763931 1.64886 68
    endloop
  endfacet
  facet normal 0 0 1
    outer loop
      vertex 0 56 68
      vertex 0.345818 57.6269 68
      vertex 0.195773 57.2361 68
    endloop
  endfacet
  facet normal 0 0 1
    outer loop
      vertex 0.763931 1.64886 68
      vertex 0 4 68
      vertex 0.535898 2 68
    endloop
  endfacet
  facet normal 0 0 1
    outer loop
      vertex 0 56 68
      vertex 0.195773 57.2361 68
      vertex 0.087409 56.8316 68
    endloop
  endfacet
  facet normal 0 0 1
    outer loop
      vertex 0.535898 2 68
      vertex 0 4 68
      vertex 0.345818 2.37305 68
    endloop
  endfacet
  facet normal 0 0 1
    outer loop
      vertex 0 56 68
      vertex 0.087409 56.8316 68
      vertex 0.0219116 56.4181 68
    endloop
  endfacet
  facet normal 0 0 1
    outer loop
      vertex 0.345818 2.37305 68
      vertex 0 4 68
      vertex 0.195773 2.76393 68
    endloop
  endfacet
  facet normal 0 0 1
    outer loop
      vertex 0.195773 2.76393 68
      vertex 0 4 68
      vertex 0.087409 3.16835 68
    endloop
  endfacet
  facet normal 0 0 1
    outer loop
      vertex 0.087409 3.16835 68
      vertex 0 4 68
      vertex 0.0219116 3.58189 68
    endloop
  endfacet
  facet normal -0.258819 -0.965926 0
    outer loop
      vertex 2.76393 0.195773 66
      vertex 3.16835 0.087409 68
      vertex 2.76393 0.195773 68
    endloop
  endfacet
  facet normal -0.258819 -0.965926 -0
    outer loop
      vertex 3.16835 0.087409 68
      vertex 2.76393 0.195773 66
      vertex 3.16835 0.087409 66
    endloop
  endfacet
  facet normal -0.93358 -0.358368 0
    outer loop
      vertex 0.345818 2.37305 66
      vertex 0.195773 2.76393 68
      vertex 0.195773 2.76393 66
    endloop
  endfacet
  facet normal -0.93358 -0.358368 0
    outer loop
      vertex 0.195773 2.76393 68
      vertex 0.345818 2.37305 66
      vertex 0.345818 2.37305 68
    endloop
  endfacet
  facet normal 0.156263 -0.987716 0
    outer loop
      vertex 111.418 0.0219116 66
      vertex 111.832 0.087409 68
      vertex 111.418 0.0219116 68
    endloop
  endfacet
  facet normal 0.156263 -0.987716 0
    outer loop
      vertex 111.832 0.087409 68
      vertex 111.418 0.0219116 66
      vertex 111.832 0.087409 66
    endloop
  endfacet
  facet normal 0.25907 -0.965859 0
    outer loop
      vertex 111.832 0.087409 66
      vertex 112.236 0.195773 68
      vertex 111.832 0.087409 68
    endloop
  endfacet
  facet normal 0.25907 -0.965859 0
    outer loop
      vertex 112.236 0.195773 68
      vertex 111.832 0.087409 66
      vertex 112.236 0.195773 66
    endloop
  endfacet
  facet normal -0.629338 0.777131 0
    outer loop
      vertex 1.64886 59.2361 66
      vertex 1.32348 58.9726 68
      vertex 1.64886 59.2361 68
    endloop
  endfacet
  facet normal -0.629338 0.777131 0
    outer loop
      vertex 1.32348 58.9726 68
      vertex 1.64886 59.2361 66
      vertex 1.32348 58.9726 66
    endloop
  endfacet
  facet normal 0.45408 0.890961 -0
    outer loop
      vertex 113 59.4641 66
      vertex 112.627 59.6542 68
      vertex 113 59.4641 68
    endloop
  endfacet
  facet normal 0.45408 0.890961 0
    outer loop
      vertex 112.627 59.6542 68
      vertex 113 59.4641 66
      vertex 112.627 59.6542 66
    endloop
  endfacet
  facet normal -0.965939 0.258771 0
    outer loop
      vertex 0.087409 56.8316 66
      vertex 0.195773 57.2361 68
      vertex 0.195773 57.2361 66
    endloop
  endfacet
  facet normal -0.965939 0.258771 0
    outer loop
      vertex 0.195773 57.2361 68
      vertex 0.087409 56.8316 66
      vertex 0.087409 56.8316 68
    endloop
  endfacet
  facet normal -0.965926 -0.258819 0
    outer loop
      vertex 0.195773 2.76393 66
      vertex 0.087409 3.16835 68
      vertex 0.087409 3.16835 66
    endloop
  endfacet
  facet normal -0.965926 -0.258819 0
    outer loop
      vertex 0.087409 3.16835 68
      vertex 0.195773 2.76393 66
      vertex 0.195773 2.76393 68
    endloop
  endfacet
  facet normal 0.933616 -0.358275 0
    outer loop
      vertex 114.654 2.37305 68
      vertex 114.804 2.76393 66
      vertex 114.804 2.76393 68
    endloop
  endfacet
  facet normal 0.933616 -0.358275 0
    outer loop
      vertex 114.804 2.76393 66
      vertex 114.654 2.37305 68
      vertex 114.654 2.37305 66
    endloop
  endfacet
  facet normal 0.628599 -0.77773 0
    outer loop
      vertex 113.351 0.763931 66
      vertex 113.677 1.02742 68
      vertex 113.351 0.763931 68
    endloop
  endfacet
  facet normal 0.628599 -0.77773 0
    outer loop
      vertex 113.677 1.02742 68
      vertex 113.351 0.763931 66
      vertex 113.677 1.02742 66
    endloop
  endfacet
  facet normal 0.358179 0.933653 -0
    outer loop
      vertex 112.627 59.6542 66
      vertex 112.236 59.8042 68
      vertex 112.627 59.6542 68
    endloop
  endfacet
  facet normal 0.358179 0.933653 0
    outer loop
      vertex 112.236 59.8042 68
      vertex 112.627 59.6542 66
      vertex 112.236 59.8042 66
    endloop
  endfacet
  facet normal -0.544584 0.838707 0
    outer loop
      vertex 2 59.4641 66
      vertex 1.64886 59.2361 68
      vertex 2 59.4641 68
    endloop
  endfacet
  facet normal -0.544584 0.838707 0
    outer loop
      vertex 1.64886 59.2361 68
      vertex 2 59.4641 66
      vertex 1.64886 59.2361 66
    endloop
  endfacet
  facet normal 0.933592 0.358339 0
    outer loop
      vertex 114.804 57.2361 68
      vertex 114.654 57.6269 66
      vertex 114.654 57.6269 68
    endloop
  endfacet
  facet normal 0.933592 0.358339 0
    outer loop
      vertex 114.654 57.6269 66
      vertex 114.804 57.2361 68
      vertex 114.804 57.2361 66
    endloop
  endfacet
  facet normal 0.998618 0.0525463 0
    outer loop
      vertex 115 56 68
      vertex 114.978 56.4181 66
      vertex 114.978 56.4181 68
    endloop
  endfacet
  facet normal 0.998618 0.0525463 0
    outer loop
      vertex 114.978 56.4181 66
      vertex 115 56 68
      vertex 115 56 66
    endloop
  endfacet
  facet normal -0.453993 -0.891005 0
    outer loop
      vertex 2 0.535898 66
      vertex 2.37305 0.345818 68
      vertex 2 0.535898 68
    endloop
  endfacet
  facet normal -0.453993 -0.891005 -0
    outer loop
      vertex 2.37305 0.345818 68
      vertex 2 0.535898 66
      vertex 2.37305 0.345818 66
    endloop
  endfacet
  facet normal 0.965558 0.260187 0
    outer loop
      vertex 114.913 56.8316 68
      vertex 114.804 57.2361 66
      vertex 114.804 57.2361 68
    endloop
  endfacet
  facet normal 0.965558 0.260187 0
    outer loop
      vertex 114.804 57.2361 66
      vertex 114.913 56.8316 68
      vertex 114.913 56.8316 66
    endloop
  endfacet
  facet normal 0.777716 -0.628616 0
    outer loop
      vertex 113.973 1.32348 68
      vertex 114.236 1.64886 66
      vertex 114.236 1.64886 68
    endloop
  endfacet
  facet normal 0.777716 -0.628616 0
    outer loop
      vertex 114.236 1.64886 66
      vertex 113.973 1.32348 68
      vertex 113.973 1.32348 66
    endloop
  endfacet
  facet normal 0.25915 0.965837 -0
    outer loop
      vertex 112.236 59.8042 66
      vertex 111.832 59.9126 68
      vertex 112.236 59.8042 68
    endloop
  endfacet
  facet normal 0.25915 0.965837 0
    outer loop
      vertex 111.832 59.9126 68
      vertex 112.236 59.8042 66
      vertex 111.832 59.9126 66
    endloop
  endfacet
  facet normal 0.0523206 0.99863 -0
    outer loop
      vertex 111.418 59.9781 66
      vertex 111 60 68
      vertex 111.418 59.9781 68
    endloop
  endfacet
  facet normal 0.0523206 0.99863 0
    outer loop
      vertex 111 60 68
      vertex 111.418 59.9781 66
      vertex 111 60 66
    endloop
  endfacet
  facet normal 0.707178 -0.707035 0
    outer loop
      vertex 113.677 1.02742 66
      vertex 113.973 1.32348 68
      vertex 113.677 1.02742 68
    endloop
  endfacet
  facet normal 0.707178 -0.707035 0
    outer loop
      vertex 113.973 1.32348 68
      vertex 113.677 1.02742 66
      vertex 113.973 1.32348 66
    endloop
  endfacet
  facet normal 0.777734 0.628593 0
    outer loop
      vertex 114.236 58.3511 68
      vertex 113.973 58.6765 66
      vertex 113.973 58.6765 68
    endloop
  endfacet
  facet normal 0.777734 0.628593 0
    outer loop
      vertex 113.973 58.6765 66
      vertex 114.236 58.3511 68
      vertex 114.236 58.3511 66
    endloop
  endfacet
  facet normal -0.777163 0.629299 0
    outer loop
      vertex 0.763931 58.3511 66
      vertex 1.02742 58.6765 68
      vertex 1.02742 58.6765 66
    endloop
  endfacet
  facet normal -0.777163 0.629299 0
    outer loop
      vertex 1.02742 58.6765 68
      vertex 0.763931 58.3511 66
      vertex 0.763931 58.3511 68
    endloop
  endfacet
  facet normal 0.987872 -0.155273 0
    outer loop
      vertex 114.913 3.16835 68
      vertex 114.978 3.58189 66
      vertex 114.978 3.58189 68
    endloop
  endfacet
  facet normal 0.987872 -0.155273 0
    outer loop
      vertex 114.978 3.58189 66
      vertex 114.913 3.16835 68
      vertex 114.913 3.16835 66
    endloop
  endfacet
  facet normal 0.891107 0.453793 0
    outer loop
      vertex 114.654 57.6269 68
      vertex 114.464 58 66
      vertex 114.464 58 68
    endloop
  endfacet
  facet normal 0.891107 0.453793 0
    outer loop
      vertex 114.464 58 66
      vertex 114.654 57.6269 68
      vertex 114.654 57.6269 66
    endloop
  endfacet
endsolid OpenSCAD_Model
